<?xml version="1.0" standalone="no"?>
<!DOCTYPE svg PUBLIC "-//W3C//DTD SVG 20010904//EN"
 "http://www.w3.org/TR/2001/REC-SVG-20010904/DTD/svg10.dtd">
<svg version="1.0" xmlns="http://www.w3.org/2000/svg"
 width="1024.000000pt" height="1024.000000pt" viewBox="0 0 1024.000000 1024.000000"
 preserveAspectRatio="xMidYMid meet">

<g transform="translate(0.000000,1024.000000) scale(0.100000,-0.100000)"
fill="#000000" stroke="none">
<path d="M4820 8022 c-157 -93 -465 -274 -685 -403 -774 -455 -1551 -913
-1645 -969 l-95 -57 0 -1483 0 -1483 100 -60 c55 -33 368 -217 695 -410 327
-192 755 -445 950 -560 195 -116 391 -231 435 -257 44 -25 180 -106 302 -178
122 -73 228 -135 236 -138 9 -3 32 5 54 19 21 13 115 69 208 124 210 124 575
340 975 578 168 100 433 258 590 350 376 222 386 228 668 395 l242 145 0 1482
0 1482 -142 84 c-178 104 -630 370 -1018 597 -162 95 -383 224 -490 288 -646
380 -1057 616 -1074 619 -13 2 -130 -61 -306 -165z m1355 -817 c149 -87 369
-217 490 -288 121 -71 357 -211 525 -310 168 -98 311 -184 318 -189 9 -8 12
-283 12 -1312 l-1 -1301 -372 -218 c-205 -120 -475 -279 -602 -354 -126 -75
-277 -164 -335 -198 -58 -34 -325 -191 -593 -349 -294 -174 -495 -286 -506
-283 -9 2 -129 71 -266 152 -138 81 -419 248 -625 370 -618 366 -908 538
-1040 615 -69 40 -200 118 -292 172 l-168 99 0 1303 0 1303 143 83 c78 46 345
203 592 348 248 146 551 324 675 397 124 73 397 234 608 358 l383 225 392
-232 c215 -128 514 -304 662 -391z m1380 -2171 c8 -3 11 -12 7 -22 -5 -15 -3
-15 10 -4 13 10 18 10 24 1 5 -8 3 -9 -6 -4 -9 5 -11 4 -6 -3 5 -9 14 -7 32 5
20 12 28 13 37 4 7 -7 8 -12 2 -11 -22 5 -45 0 -45 -9 0 -14 43 -4 56 14 6 8
14 12 18 8 4 -4 4 0 1 8 -3 9 1 22 10 29 12 10 15 10 15 -1 0 -11 2 -11 10 1
7 11 5 19 -8 29 -15 12 -15 13 0 8 18 -6 42 15 30 28 -4 5 -1 5 6 1 9 -5 10
-12 3 -19 -7 -9 -2 -12 16 -14 19 -1 22 1 12 8 -12 7 -12 9 1 9 12 1 12 3 -2
14 -10 7 -15 16 -11 19 3 4 1 7 -5 7 -7 0 -12 5 -12 12 0 6 9 3 20 -7 11 -10
20 -14 20 -10 0 5 7 0 16 -11 15 -18 15 -18 5 3 -8 15 -8 24 -1 28 6 4 10 14
9 23 -1 10 0 62 2 117 6 187 14 -240 17 -962 l4 -692 -24 -14 c-45 -28 -477
-284 -873 -517 -77 -45 -157 -93 -177 -106 -21 -13 -40 -24 -43 -24 -3 0 -42
-22 -86 -50 -44 -27 -82 -50 -84 -50 -1 0 -73 -43 -159 -95 -86 -52 -159 -95
-161 -95 -2 0 -50 -28 -107 -63 -147 -91 -277 -167 -284 -167 -3 0 -18 -8 -32
-19 -15 -10 -166 -101 -337 -201 -170 -100 -318 -188 -330 -196 -18 -12 -25
-10 -60 11 l-40 24 38 1 c20 0 37 5 37 11 0 5 -4 7 -10 4 -5 -3 -10 -1 -10 4
0 6 4 11 9 11 5 0 11 9 14 20 3 11 1 18 -4 14 -5 -3 -9 2 -9 11 0 10 5 14 13
10 6 -4 4 0 -5 8 -19 15 -25 32 -8 22 6 -3 10 -1 10 4 0 6 -5 11 -11 11 -5 0
-7 5 -4 10 3 6 -2 10 -12 11 -10 0 -13 3 -5 6 18 7 15 21 -7 28 -13 4 -17 12
-13 27 4 16 2 19 -9 13 -8 -5 -11 -4 -6 1 5 5 12 9 15 9 31 3 51 18 48 38 -3
21 -36 38 -36 19 0 -5 -7 -9 -16 -9 -15 0 -15 2 1 13 15 12 15 13 -4 24 -14 7
-21 7 -21 0 0 -6 -7 -6 -19 2 -11 7 -18 15 -15 19 2 5 -4 13 -15 18 -14 8 -21
8 -24 -2 -3 -6 -5 -2 -4 9 l1 22 38 -24 c21 -13 41 -24 45 -24 3 0 15 -7 24
-16 29 -26 58 -20 153 35 48 28 93 48 99 44 5 -3 7 -1 4 4 -4 6 30 32 76 58
164 96 524 308 592 350 39 24 147 88 240 142 94 55 332 196 530 313 537 318
572 339 670 395 l90 51 5 825 c2 453 6 733 8 621 2 -164 5 -204 17 -208z m135
36 c0 -5 -2 -10 -4 -10 -3 0 -8 5 -11 10 -3 6 -1 10 4 10 6 0 11 -4 11 -10z
m-110 -10 c0 -5 -5 -10 -11 -10 -5 0 -7 5 -4 10 3 6 8 10 11 10 2 0 4 -4 4
-10z m93 -26 c-3 -8 -7 -14 -10 -14 -3 0 -3 6 0 14 3 7 0 20 -6 27 -10 11 -9
11 5 0 9 -7 14 -19 11 -27z m-2753 -2539 c24 -13 24 -14 4 -15 -12 0 -27 7
-34 15 -16 19 -3 19 30 0z m115 -125 c-3 -5 -12 -10 -18 -10 -7 0 -6 4 3 10
19 12 23 12 15 0z m70 -30 c-3 -5 -12 -10 -18 -10 -7 0 -6 4 3 10 19 12 23 12
15 0z m-51 -106 c3 -8 2 -12 -4 -9 -6 3 -10 10 -10 16 0 14 7 11 14 -7z m-249
-4 c3 -6 -1 -7 -9 -4 -18 7 -21 14 -7 14 6 0 13 -4 16 -10z m75 -46 c0 -2 -13
2 -30 11 -16 9 -30 18 -30 21 0 2 14 -2 30 -11 17 -9 30 -18 30 -21z m79 -27
c11 3 12 2 4 -4 -9 -6 -7 -12 7 -21 16 -9 18 -9 14 2 -3 8 -1 17 5 21 6 3 11
2 11 -2 0 -5 7 -18 16 -29 8 -10 13 -14 10 -8 -3 6 1 11 8 11 8 0 11 -9 8 -22
-4 -22 -5 -22 -69 16 -69 40 -110 71 -59 45 16 -8 36 -12 45 -9z m82 0 c-10
-9 -11 -8 -5 6 3 10 9 15 12 12 3 -3 0 -11 -7 -18z m62 -21 c4 -10 1 -13 -8
-9 -8 3 -12 9 -9 14 7 12 11 11 17 -5z"/>
<path d="M6108 6200 c-204 -32 -370 -119 -503 -262 -139 -147 -221 -323 -261
-552 -25 -139 -15 -409 19 -537 78 -296 234 -501 472 -619 150 -74 201 -85
390 -84 146 0 167 2 240 27 44 14 107 42 139 62 33 20 63 34 67 33 4 -2 27
-27 51 -57 l45 -54 174 2 c95 1 176 4 178 7 3 3 -72 4 -167 4 -178 -2 -191 1
-212 40 -6 12 -4 23 6 36 9 11 13 13 9 7 -8 -16 31 -18 40 -3 3 6 1 10 -4 10
-6 0 -11 10 -10 23 0 12 3 16 6 10 10 -25 19 -12 17 25 -1 34 9 51 29 52 4 0
7 -5 7 -11 0 -5 -4 -8 -9 -4 -5 3 -12 1 -16 -5 -4 -6 6 -10 22 -11 21 -1 23
-3 8 -6 -26 -6 -44 -23 -24 -23 23 0 54 26 41 34 -8 5 -8 13 0 32 8 18 17 23
32 18 17 -4 18 -3 6 5 -8 6 -13 11 -10 12 3 0 13 2 22 4 11 2 33 -15 60 -48
23 -29 73 -86 110 -128 37 -42 65 -79 61 -83 -3 -3 1 -6 11 -6 20 0 25 -5
-134 181 -58 68 -111 131 -117 140 -11 13 -4 29 41 98 117 177 169 369 170
626 0 171 -13 259 -59 396 -106 312 -350 538 -645 599 -76 15 -234 21 -302 10z
m257 -355 c171 -48 316 -228 366 -455 17 -80 20 -118 16 -240 -5 -151 -19
-217 -70 -328 l-23 -49 -75 95 -76 95 -179 -2 c-98 -1 -180 -4 -182 -6 -2 -1
69 -89 157 -195 89 -105 161 -196 161 -200 0 -5 -24 -20 -54 -34 -288 -136
-581 32 -678 389 -29 108 -32 392 -5 500 26 104 89 224 157 298 77 83 146 120
285 151 32 7 145 -4 200 -19z m722 -852 c-3 -10 -5 -4 -5 12 0 17 2 24 5 18 2
-7 2 -21 0 -30z m-10 -55 c-3 -7 -5 -2 -5 12 0 14 2 19 5 13 2 -7 2 -19 0 -25z
m-10 -40 c-3 -8 -6 -5 -6 6 -1 11 2 17 5 13 3 -3 4 -12 1 -19z m-40 -140 c-3
-8 -6 -5 -6 6 -1 11 2 17 5 13 3 -3 4 -12 1 -19z m-18 -44 c-28 -76 -126 -223
-126 -191 0 9 5 13 10 10 6 -4 8 0 4 10 -3 9 0 18 9 21 8 3 22 21 31 41 9 19
21 35 26 35 5 0 6 7 3 16 -3 8 -2 13 3 10 12 -8 22 20 15 42 -4 13 -3 14 4 4
7 -11 10 -9 15 7 3 12 8 21 11 21 3 0 1 -12 -5 -26z m-89 -283 c0 -4 -8 -7
-19 -8 -13 -1 -18 5 -18 23 0 24 0 24 18 8 11 -9 19 -20 19 -23z m-265 -147
c-31 -25 -144 -84 -161 -84 -5 0 20 15 56 33 36 18 79 42 95 54 40 30 47 28
10 -3z m105 0 c0 -2 -9 -4 -20 -4 -11 0 -20 4 -20 9 0 5 9 7 20 4 11 -3 20 -7
20 -9z m-52 -12 c24 -26 30 -51 7 -32 -17 14 -39 50 -30 50 3 0 13 -8 23 -18z"/>
<path d="M3210 5170 l0 -1020 185 0 185 0 2 680 3 680 285 -477 c157 -262 290
-478 295 -480 9 -3 465 749 555 915 13 23 27 42 32 42 4 0 8 -305 8 -677 l0
-678 180 0 180 0 0 1018 0 1017 -187 -2 -186 -3 -286 -482 c-157 -265 -288
-482 -291 -482 -3 -1 -57 88 -121 197 -63 108 -192 326 -285 484 l-169 288
-192 0 -193 0 0 -1020z"/>
<path d="M6871 4364 c0 -11 3 -14 6 -6 3 7 2 16 -1 19 -3 4 -6 -2 -5 -13z"/>
<path d="M6840 4285 c-7 -9 -8 -15 -2 -15 5 0 12 7 16 15 3 8 4 15 2 15 -2 0
-9 -7 -16 -15z"/>
<path d="M5100 2301 c0 -10 19 -25 25 -20 1 2 -3 10 -11 17 -8 7 -14 8 -14 3z"/>
<path d="M5080 2280 c0 -5 5 -10 11 -10 5 0 7 5 4 10 -3 6 -8 10 -11 10 -2 0
-4 -4 -4 -10z"/>
<path d="M5110 2251 c0 -6 4 -13 10 -16 6 -3 7 1 4 9 -7 18 -14 21 -14 7z"/>
</g>
</svg>
